<?xml version="1.0" encoding="utf-8"?>
<svg width="300px" height="98px" viewbox="0 0 300 98" version="1.1" xmlns:xlink="http://www.w3.org/1999/xlink" xmlns="http://www.w3.org/2000/svg">
    <g id="Enter-your-email-to-subscribe" fill="#9F9C9C" transform="translate(1.5 0)">
        <path d="M78.1978 12.3511L77.3169 12.3511L77.3169 4.2085L78.1978 4.2085L78.1978 12.3511ZM107.954 11.5562L107.975 11.5562Q108.534 12.48 109.624 12.48Q110.79 12.48 111.461 11.6501Q112.132 10.8203 112.132 9.43994Q112.132 8.19922 111.533 7.46069Q110.935 6.72217 109.876 6.72217Q108.625 6.72217 107.975 7.81787L107.954 7.81787L107.954 4.2085L107.073 4.2085L107.073 12.3511L107.954 12.3511L107.954 11.5562ZM130.679 11.5562L130.657 11.5562L130.657 12.3511L129.776 12.3511L129.776 4.2085L130.657 4.2085L130.657 7.81787L130.679 7.81787Q131.329 6.72217 132.58 6.72217Q133.638 6.72217 134.237 7.46069Q134.836 8.19922 134.836 9.43994Q134.836 10.8203 134.165 11.6501Q133.493 12.48 132.328 12.48Q131.237 12.48 130.679 11.5562ZM74.7012 5.29346Q74.8677 5.45459 75.104 5.45459Q75.3457 5.45459 75.5149 5.28809Q75.6841 5.12158 75.6841 4.88525Q75.6841 4.63818 75.5149 4.47437Q75.3457 4.31055 75.104 4.31055Q74.8677 4.31055 74.7012 4.47437Q74.5347 4.63818 74.5347 4.88525Q74.5347 5.13232 74.7012 5.29346ZM127.161 5.29346Q127.327 5.45459 127.563 5.45459Q127.805 5.45459 127.974 5.28809Q128.144 5.12158 128.144 4.88525Q128.144 4.63818 127.974 4.47437Q127.805 4.31055 127.563 4.31055Q127.327 4.31055 127.161 4.47437Q126.994 4.63818 126.994 4.88525Q126.994 5.13232 127.161 5.29346ZM5.0918 12.3511L1.00977 12.3511L1.00977 4.64893L4.91992 4.64893L4.91992 5.46533L1.91211 5.46533L1.91211 8.02734L4.69434 8.02734L4.69434 8.83838L1.91211 8.83838L1.91211 11.5347L5.0918 11.5347L5.0918 12.3511ZM14.4106 12.4692Q14.9209 12.4692 15.2324 12.2974L15.2324 11.5454Q14.9907 11.728 14.6577 11.728Q14.2227 11.728 14.0347 11.4917Q13.8467 11.2554 13.8467 10.7021L13.8467 7.60303L15.2324 7.60303L15.2324 6.85107L13.8467 6.85107L13.8467 5.22363L12.9658 5.5083L12.9658 6.85107L12.0205 6.85107L12.0205 7.60303L12.9658 7.60303L12.9658 10.8579Q12.9658 12.4692 14.4106 12.4692ZM84.7236 12.4692Q85.2339 12.4692 85.5454 12.2974L85.5454 11.5454Q85.3037 11.728 84.9707 11.728Q84.5356 11.728 84.3477 11.4917Q84.1597 11.2554 84.1597 10.7021L84.1597 7.60303L85.5454 7.60303L85.5454 6.85107L84.1597 6.85107L84.1597 5.22363L83.2788 5.5083L83.2788 6.85107L82.3335 6.85107L82.3335 7.60303L83.2788 7.60303L83.2788 10.8579Q83.2788 12.4692 84.7236 12.4692ZM11.0215 12.3511L10.1406 12.3511L10.1406 9.21436Q10.1406 7.46338 8.8623 7.46338Q8.20166 7.46338 7.76929 7.96021Q7.33691 8.45703 7.33691 9.21436L7.33691 12.3511L6.45605 12.3511L6.45605 6.85107L7.33691 6.85107L7.33691 7.76416L7.3584 7.76416Q7.98145 6.72217 9.16309 6.72217Q10.0654 6.72217 10.5435 7.30493Q11.0215 7.8877 11.0215 8.98877L11.0215 12.3511ZM20.8291 9.82129L16.9458 9.82129Q16.9673 10.7397 17.4399 11.2393Q17.9126 11.7388 18.7397 11.7388Q19.6689 11.7388 20.4478 11.1265L20.4478 11.9536Q19.7227 12.48 18.5303 12.48Q17.3647 12.48 16.6987 11.7307Q16.0327 10.9814 16.0327 9.62256Q16.0327 8.33887 16.7605 7.53052Q17.4883 6.72217 18.5679 6.72217Q19.6475 6.72217 20.2383 7.42041Q20.8291 8.11865 20.8291 9.35938L20.8291 9.82129ZM34.6731 11.7092Q35.4009 12.48 36.6201 12.48Q37.8716 12.48 38.6155 11.6877Q39.3594 10.8955 39.3594 9.57959Q39.3594 8.23682 38.6692 7.47949Q37.979 6.72217 36.749 6.72217Q35.46 6.72217 34.7026 7.50098Q33.9453 8.27979 33.9453 9.66553Q33.9453 10.9385 34.6731 11.7092ZM58.2495 9.82129L54.3662 9.82129Q54.3877 10.7397 54.8604 11.2393Q55.333 11.7388 56.1602 11.7388Q57.0894 11.7388 57.8682 11.1265L57.8682 11.9536Q57.1431 12.48 55.9507 12.48Q54.7852 12.48 54.1191 11.7307Q53.4531 10.9814 53.4531 9.62256Q53.4531 8.33887 54.1809 7.53052Q54.9087 6.72217 55.9883 6.72217Q57.0679 6.72217 57.6587 7.42041Q58.2495 8.11865 58.2495 9.35938L58.2495 9.82129ZM66.5103 12.3511L67.3911 12.3511L67.3911 8.96191Q67.3911 6.72217 65.5757 6.72217Q64.3618 6.72217 63.7495 7.86084Q63.5938 7.35059 63.1748 7.03638Q62.7559 6.72217 62.1919 6.72217Q61.0693 6.72217 60.4839 7.72119L60.4624 7.72119L60.4624 6.85107L59.5815 6.85107L59.5815 12.3511L60.4624 12.3511L60.4624 9.21436Q60.4624 8.43555 60.8384 7.94946Q61.2144 7.46338 61.7944 7.46338Q63.0459 7.46338 63.0459 9.08545L63.0459 12.3511L63.9268 12.3511L63.9268 9.21436Q63.9268 8.49463 64.3215 7.979Q64.7163 7.46338 65.2803 7.46338Q65.9463 7.46338 66.2283 7.87158Q66.5103 8.27979 66.5103 9.19287L66.5103 12.3511ZM72.9932 12.3511L72.1123 12.3511L72.1123 11.4917L72.0908 11.4917Q71.5161 12.48 70.3989 12.48Q69.5771 12.48 69.1125 12.0449Q68.6479 11.6099 68.6479 10.8901Q68.6479 9.34863 70.4634 9.09619L72.1123 8.86523Q72.1123 7.46338 70.979 7.46338Q69.9854 7.46338 69.1851 8.14014L69.1851 7.23779Q69.9961 6.72217 71.0542 6.72217Q72.9932 6.72217 72.9932 8.77393L72.9932 12.3511ZM89.0205 12.48Q87.8013 12.48 87.0735 11.7092Q86.3457 10.9385 86.3457 9.66553Q86.3457 8.27979 87.103 7.50098Q87.8604 6.72217 89.1494 6.72217Q90.3794 6.72217 91.0696 7.47949Q91.7598 8.23682 91.7598 9.57959Q91.7598 10.8955 91.0159 11.6877Q90.272 12.48 89.0205 12.48ZM95.8472 11.207L95.8472 12.1523Q96.4702 12.48 97.3188 12.48Q97.7485 12.48 98.1406 12.3833Q98.5327 12.2866 98.8335 12.0879Q99.1343 11.8892 99.3142 11.5884Q99.4941 11.2876 99.4941 10.8794Q99.4941 10.5464 99.384 10.3047Q99.2739 10.063 99.0698 9.87769Q98.8657 9.69238 98.5757 9.54468Q98.2856 9.39697 97.9204 9.25732Q97.6465 9.1499 97.4316 9.05859Q97.2168 8.96729 97.0664 8.85449Q96.916 8.7417 96.8381 8.59668Q96.7603 8.45166 96.7603 8.23682Q96.7603 8.06494 96.8381 7.92261Q96.916 7.78027 97.0583 7.67822Q97.2007 7.57617 97.3994 7.51978Q97.5981 7.46338 97.8452 7.46338Q98.6348 7.46338 99.2417 7.86084L99.2417 6.96924Q98.6777 6.72217 97.9634 6.72217Q97.5605 6.72217 97.1819 6.82422Q96.8032 6.92627 96.5078 7.12769Q96.2124 7.3291 96.0352 7.6272Q95.8579 7.92529 95.8579 8.31201Q95.8579 8.62891 95.9519 8.86523Q96.0459 9.10156 96.2312 9.28687Q96.4165 9.47217 96.6931 9.61987Q96.9697 9.76758 97.335 9.9126Q97.5981 10.0146 97.8264 10.1086Q98.0547 10.2026 98.2239 10.3208Q98.3931 10.439 98.4924 10.592Q98.5918 10.7451 98.5918 10.9653Q98.5918 11.7388 97.4316 11.7388Q96.5669 11.7388 95.8472 11.207ZM113.207 12.1523L113.207 11.207Q113.926 11.7388 114.791 11.7388Q115.951 11.7388 115.951 10.9653Q115.951 10.7451 115.852 10.592Q115.752 10.439 115.583 10.3208Q115.414 10.2026 115.186 10.1086Q114.958 10.0146 114.694 9.9126Q114.329 9.76758 114.052 9.61987Q113.776 9.47217 113.591 9.28687Q113.405 9.10156 113.311 8.86523Q113.217 8.62891 113.217 8.31201Q113.217 7.92529 113.395 7.6272Q113.572 7.3291 113.867 7.12769Q114.163 6.92627 114.541 6.82422Q114.92 6.72217 115.323 6.72217Q116.037 6.72217 116.601 6.96924L116.601 7.86084Q115.994 7.46338 115.205 7.46338Q114.958 7.46338 114.759 7.51978Q114.56 7.57617 114.418 7.67822Q114.275 7.78027 114.198 7.92261Q114.12 8.06494 114.12 8.23682Q114.12 8.45166 114.198 8.59668Q114.275 8.7417 114.426 8.85449Q114.576 8.96729 114.791 9.05859Q115.006 9.1499 115.28 9.25732Q115.645 9.39697 115.935 9.54468Q116.225 9.69238 116.429 9.87769Q116.633 10.063 116.743 10.3047Q116.854 10.5464 116.854 10.8794Q116.854 11.2876 116.674 11.5884Q116.494 11.8892 116.193 12.0879Q115.892 12.2866 115.5 12.3833Q115.108 12.48 114.678 12.48Q113.83 12.48 113.207 12.1523ZM120.452 12.48Q121.322 12.48 121.956 12.0986L121.956 11.2607Q121.322 11.7388 120.603 11.7388Q119.749 11.7388 119.241 11.1802Q118.733 10.6216 118.733 9.65479Q118.733 8.67188 119.273 8.06763Q119.813 7.46338 120.656 7.46338Q121.354 7.46338 121.967 7.89307L121.967 6.99072Q121.414 6.72217 120.688 6.72217Q119.389 6.72217 118.61 7.54663Q117.831 8.37109 117.831 9.72998Q117.831 10.9492 118.553 11.7146Q119.276 12.48 120.452 12.48ZM136.78 9.82129L140.664 9.82129L140.664 9.35938Q140.664 8.11865 140.073 7.42041Q139.482 6.72217 138.402 6.72217Q137.323 6.72217 136.595 7.53052Q135.867 8.33887 135.867 9.62256Q135.867 10.9814 136.533 11.7307Q137.199 12.48 138.365 12.48Q139.557 12.48 140.282 11.9536L140.282 11.1265Q139.503 11.7388 138.574 11.7388Q137.747 11.7388 137.274 11.2393Q136.802 10.7397 136.78 9.82129ZM24.3633 7.56543Q24.7983 7.56543 25.0293 7.74268L25.0293 6.82959Q24.8467 6.75439 24.5029 6.75439Q24.0249 6.75439 23.6382 7.07935Q23.2515 7.4043 23.0635 7.98438L23.042 7.98438L23.042 6.85107L22.1611 6.85107L22.1611 12.3511L23.042 12.3511L23.042 9.54736Q23.042 8.62891 23.4207 8.09717Q23.7993 7.56543 24.3633 7.56543ZM49.1938 7.56543Q49.6289 7.56543 49.8599 7.74268L49.8599 6.82959Q49.6772 6.75439 49.3335 6.75439Q48.8555 6.75439 48.4688 7.07935Q48.082 7.4043 47.894 7.98438L47.8726 7.98438L47.8726 6.85107L46.9917 6.85107L46.9917 12.3511L47.8726 12.3511L47.8726 9.54736Q47.8726 8.62891 48.2512 8.09717Q48.6299 7.56543 49.1938 7.56543ZM126.156 7.74268Q125.925 7.56543 125.49 7.56543Q124.926 7.56543 124.548 8.09717Q124.169 8.62891 124.169 9.54736L124.169 12.3511L123.288 12.3511L123.288 6.85107L124.169 6.85107L124.169 7.98438L124.19 7.98438Q124.378 7.4043 124.765 7.07935Q125.152 6.75439 125.63 6.75439Q125.974 6.75439 126.156 6.82959L126.156 7.74268ZM33.376 6.85107L30.8462 13.2319Q30.1694 14.9399 28.9448 14.9399Q28.6011 14.9399 28.3701 14.8701L28.3701 14.0806Q28.6548 14.1772 28.8911 14.1772Q29.5571 14.1772 29.8901 13.3823L30.3306 12.3403L28.1821 6.85107L29.1597 6.85107L30.6475 11.0835Q30.6743 11.1641 30.7603 11.5024L30.7925 11.5024Q30.8193 11.3735 30.8999 11.0942L32.4629 6.85107L33.376 6.85107ZM45.2139 12.3511L44.333 12.3511L44.333 11.481L44.3115 11.481Q43.7637 12.48 42.6143 12.48Q40.6484 12.48 40.6484 10.1382L40.6484 6.85107L41.5239 6.85107L41.5239 9.99854Q41.5239 11.7388 42.856 11.7388Q43.5005 11.7388 43.9167 11.2634Q44.333 10.7881 44.333 10.02L44.333 6.85107L45.2139 6.85107L45.2139 12.3511ZM74.6528 12.3511L75.5337 12.3511L75.5337 6.85107L74.6528 6.85107L74.6528 12.3511ZM105.295 12.3511L104.414 12.3511L104.414 11.481L104.393 11.481Q103.845 12.48 102.695 12.48Q100.729 12.48 100.729 10.1382L100.729 6.85107L101.605 6.85107L101.605 9.99854Q101.605 11.7388 102.937 11.7388Q103.582 11.7388 103.998 11.2634Q104.414 10.7881 104.414 10.02L104.414 6.85107L105.295 6.85107L105.295 12.3511ZM127.112 12.3511L127.993 12.3511L127.993 6.85107L127.112 6.85107L127.112 12.3511ZM19.9268 9.07471Q19.9214 8.31201 19.5588 7.8877Q19.1963 7.46338 18.5518 7.46338Q17.9287 7.46338 17.4937 7.90918Q17.0586 8.35498 16.9565 9.07471L19.9268 9.07471ZM35.3418 8.04077Q35.8359 7.46338 36.6846 7.46338Q37.5386 7.46338 37.9978 8.02197Q38.457 8.58057 38.457 9.61182Q38.457 10.6323 37.9978 11.1855Q37.5386 11.7388 36.6846 11.7388Q35.8467 11.7388 35.3472 11.1748Q34.8477 10.6108 34.8477 9.6333Q34.8477 8.61816 35.3418 8.04077ZM57.3472 9.07471Q57.3418 8.31201 56.9792 7.8877Q56.6167 7.46338 55.9722 7.46338Q55.3491 7.46338 54.9141 7.90918Q54.479 8.35498 54.377 9.07471L57.3472 9.07471ZM89.085 7.46338Q88.2363 7.46338 87.7422 8.04077Q87.248 8.61816 87.248 9.6333Q87.248 10.6108 87.7476 11.1748Q88.2471 11.7388 89.085 11.7388Q89.939 11.7388 90.3982 11.1855Q90.8574 10.6323 90.8574 9.61182Q90.8574 8.58057 90.3982 8.02197Q89.939 7.46338 89.085 7.46338ZM107.954 10.106L107.954 9.33789Q107.954 8.53223 108.421 7.9978Q108.888 7.46338 109.656 7.46338Q110.381 7.46338 110.806 7.98438Q111.23 8.50537 111.23 9.42383Q111.23 10.5142 110.776 11.1265Q110.322 11.7388 109.522 11.7388Q108.84 11.7388 108.397 11.2634Q107.954 10.7881 107.954 10.106ZM130.657 9.33789L130.657 10.106Q130.657 10.7881 131.1 11.2634Q131.543 11.7388 132.226 11.7388Q133.026 11.7388 133.48 11.1265Q133.934 10.5142 133.934 9.42383Q133.934 8.50537 133.509 7.98438Q133.085 7.46338 132.36 7.46338Q131.592 7.46338 131.125 7.9978Q130.657 8.53223 130.657 9.33789ZM139.393 7.8877Q139.756 8.31201 139.761 9.07471L136.791 9.07471Q136.893 8.35498 137.328 7.90918Q137.763 7.46338 138.386 7.46338Q139.031 7.46338 139.393 7.8877ZM72.1123 9.56885L70.7856 9.75146Q70.1733 9.8374 69.8618 10.0549Q69.5503 10.2725 69.5503 10.8257Q69.5503 11.2285 69.8376 11.4836Q70.125 11.7388 70.603 11.7388Q71.2583 11.7388 71.6853 11.2795Q72.1123 10.8203 72.1123 10.1167L72.1123 9.56885Z" />
    </g>
    <path d="M0.5 0.5L16.5 0.5" transform="translate(238.5 3.5)" id="Line" fill="none" fill-rule="evenodd" stroke="#000000" stroke-width="0.5" />
    <path d="M254.5 0.5L0.5 0.5" transform="translate(0.5 19)" id="Line-2" fill="none" fill-rule="evenodd" stroke="#000000" stroke-width="1" stroke-linecap="square" />
</svg>
